%TF.GenerationSoftware,KiCad,Pcbnew,8.0.2-1*%
%TF.CreationDate,2024-11-08T16:05:35-05:00*%
%TF.ProjectId,stepper-adapter,73746570-7065-4722-9d61-646170746572,rev?*%
%TF.SameCoordinates,Original*%
%TF.FileFunction,Legend,Top*%
%TF.FilePolarity,Positive*%
%FSLAX46Y46*%
G04 Gerber Fmt 4.6, Leading zero omitted, Abs format (unit mm)*
G04 Created by KiCad (PCBNEW 8.0.2-1) date 2024-11-08 16:05:35*
%MOMM*%
%LPD*%
G01*
G04 APERTURE LIST*
%ADD10C,0.150000*%
%ADD11C,0.120000*%
G04 APERTURE END LIST*
D10*
%TO.C,TP2*%
X7100000Y-14900000D02*
X4900000Y-14900000D01*
X7100000Y-11100000D02*
X7100000Y-14900000D01*
X4900000Y-14900000D02*
X4900000Y-11100000D01*
X4900000Y-11100000D02*
X7100000Y-11100000D01*
D11*
%TO.C,J1*%
X590000Y-8710000D02*
X590000Y-6410000D01*
X890000Y-890000D02*
X8000000Y-890000D01*
X890000Y-7000000D02*
X890000Y-890000D01*
X990000Y-7000000D02*
X890000Y-7000000D01*
X990000Y-7500000D02*
X990000Y-7000000D01*
X1340000Y-890000D02*
X1340000Y-4900000D01*
X1340000Y-4900000D02*
X14660000Y-4900000D01*
X1490000Y-8410000D02*
X990000Y-7500000D01*
X2500000Y-8410000D02*
X1490000Y-8410000D01*
X2700000Y-8160000D02*
X2500000Y-8410000D01*
X2700000Y-8160000D02*
X3300000Y-8160000D01*
X2750000Y-1850000D02*
X3000000Y-1600000D01*
X2750000Y-4900000D02*
X2750000Y-1850000D01*
X2890000Y-8710000D02*
X590000Y-8710000D01*
X3000000Y-1600000D02*
X3250000Y-1850000D01*
X3250000Y-1850000D02*
X3250000Y-4900000D01*
X3300000Y-8160000D02*
X3500000Y-8410000D01*
X3500000Y-8410000D02*
X4500000Y-8410000D01*
X4500000Y-8410000D02*
X4700000Y-8160000D01*
X4700000Y-8160000D02*
X5300000Y-8160000D01*
X4750000Y-1850000D02*
X5000000Y-1600000D01*
X4750000Y-4900000D02*
X4750000Y-1850000D01*
X5000000Y-1600000D02*
X5250000Y-1850000D01*
X5250000Y-1850000D02*
X5250000Y-4900000D01*
X5300000Y-8160000D02*
X5500000Y-8410000D01*
X5500000Y-8410000D02*
X6500000Y-8410000D01*
X6500000Y-8410000D02*
X6700000Y-8160000D01*
X6700000Y-8160000D02*
X7300000Y-8160000D01*
X6750000Y-1850000D02*
X7000000Y-1600000D01*
X6750000Y-4900000D02*
X6750000Y-1850000D01*
X7000000Y-1600000D02*
X7250000Y-1850000D01*
X7250000Y-1850000D02*
X7250000Y-4900000D01*
X7300000Y-8160000D02*
X7500000Y-8410000D01*
X7500000Y-8410000D02*
X8500000Y-8410000D01*
X8500000Y-8410000D02*
X8700000Y-8160000D01*
X8700000Y-8160000D02*
X9300000Y-8160000D01*
X8750000Y-1850000D02*
X9000000Y-1600000D01*
X8750000Y-4900000D02*
X8750000Y-1850000D01*
X9000000Y-1600000D02*
X9250000Y-1850000D01*
X9250000Y-1850000D02*
X9250000Y-4900000D01*
X9300000Y-8160000D02*
X9500000Y-8410000D01*
X9500000Y-8410000D02*
X10500000Y-8410000D01*
X10500000Y-8410000D02*
X10700000Y-8160000D01*
X10700000Y-8160000D02*
X11300000Y-8160000D01*
X10750000Y-1850000D02*
X11000000Y-1600000D01*
X10750000Y-4900000D02*
X10750000Y-1850000D01*
X11000000Y-1600000D02*
X11250000Y-1850000D01*
X11250000Y-1850000D02*
X11250000Y-4900000D01*
X11300000Y-8160000D02*
X11500000Y-8410000D01*
X11500000Y-8410000D02*
X12500000Y-8410000D01*
X12500000Y-8410000D02*
X12700000Y-8160000D01*
X12700000Y-8160000D02*
X13300000Y-8160000D01*
X12750000Y-1850000D02*
X13000000Y-1600000D01*
X12750000Y-4900000D02*
X12750000Y-1850000D01*
X13000000Y-1600000D02*
X13250000Y-1850000D01*
X13250000Y-1850000D02*
X13250000Y-4900000D01*
X13300000Y-8160000D02*
X13500000Y-8410000D01*
X13500000Y-8410000D02*
X14510000Y-8410000D01*
X14510000Y-8410000D02*
X15010000Y-7500000D01*
X14660000Y-4900000D02*
X14660000Y-890000D01*
X15010000Y-7000000D02*
X15110000Y-7000000D01*
X15010000Y-7500000D02*
X15010000Y-7000000D01*
X15110000Y-890000D02*
X8000000Y-890000D01*
X15110000Y-7000000D02*
X15110000Y-890000D01*
D10*
%TO.C,TP1*%
X900000Y-11100000D02*
X3100000Y-11100000D01*
X900000Y-14900000D02*
X900000Y-11100000D01*
X3100000Y-11100000D02*
X3100000Y-14900000D01*
X3100000Y-14900000D02*
X900000Y-14900000D01*
%TO.C,TP3*%
X11150000Y-14900000D02*
X8950000Y-14900000D01*
X11150000Y-11100000D02*
X11150000Y-14900000D01*
X8950000Y-14900000D02*
X8950000Y-11100000D01*
X8950000Y-11100000D02*
X11150000Y-11100000D01*
%TO.C,TP4*%
X15100000Y-14900000D02*
X12900000Y-14900000D01*
X15100000Y-11100000D02*
X15100000Y-14900000D01*
X12900000Y-14900000D02*
X12900000Y-11100000D01*
X12900000Y-11100000D02*
X15100000Y-11100000D01*
%TD*%
M02*
