%TF.GenerationSoftware,KiCad,Pcbnew,8.0.2-1*%
%TF.CreationDate,2024-11-08T16:05:34-05:00*%
%TF.ProjectId,stepper-adapter,73746570-7065-4722-9d61-646170746572,rev?*%
%TF.SameCoordinates,Original*%
%TF.FileFunction,Copper,L1,Top*%
%TF.FilePolarity,Positive*%
%FSLAX46Y46*%
G04 Gerber Fmt 4.6, Leading zero omitted, Abs format (unit mm)*
G04 Created by KiCad (PCBNEW 8.0.2-1) date 2024-11-08 16:05:34*
%MOMM*%
%LPD*%
G01*
G04 APERTURE LIST*
G04 Aperture macros list*
%AMRoundRect*
0 Rectangle with rounded corners*
0 $1 Rounding radius*
0 $2 $3 $4 $5 $6 $7 $8 $9 X,Y pos of 4 corners*
0 Add a 4 corners polygon primitive as box body*
4,1,4,$2,$3,$4,$5,$6,$7,$8,$9,$2,$3,0*
0 Add four circle primitives for the rounded corners*
1,1,$1+$1,$2,$3*
1,1,$1+$1,$4,$5*
1,1,$1+$1,$6,$7*
1,1,$1+$1,$8,$9*
0 Add four rect primitives between the rounded corners*
20,1,$1+$1,$2,$3,$4,$5,0*
20,1,$1+$1,$4,$5,$6,$7,0*
20,1,$1+$1,$6,$7,$8,$9,0*
20,1,$1+$1,$8,$9,$2,$3,0*%
G04 Aperture macros list end*
%TA.AperFunction,SMDPad,CuDef*%
%ADD10R,1.800000X3.400000*%
%TD*%
%TA.AperFunction,ComponentPad*%
%ADD11RoundRect,0.250000X-0.350000X-0.650000X0.350000X-0.650000X0.350000X0.650000X-0.350000X0.650000X0*%
%TD*%
%TA.AperFunction,ComponentPad*%
%ADD12O,1.200000X1.800000*%
%TD*%
%TA.AperFunction,Conductor*%
%ADD13C,1.000000*%
%TD*%
G04 APERTURE END LIST*
D10*
%TO.P,TP2,1,1*%
%TO.N,Net-(J1-Pin_3)*%
X6000000Y-13000000D03*
%TD*%
D11*
%TO.P,J1,1,Pin_1*%
%TO.N,Net-(J1-Pin_1)*%
X3000000Y-7000000D03*
D12*
%TO.P,J1,2,Pin_2*%
%TO.N,unconnected-(J1-Pin_2-Pad2)*%
X5000000Y-7000000D03*
%TO.P,J1,3,Pin_3*%
%TO.N,Net-(J1-Pin_3)*%
X7000000Y-7000000D03*
%TO.P,J1,4,Pin_4*%
%TO.N,Net-(J1-Pin_4)*%
X9000000Y-7000000D03*
%TO.P,J1,5,Pin_5*%
%TO.N,unconnected-(J1-Pin_5-Pad5)*%
X11000000Y-7000000D03*
%TO.P,J1,6,Pin_6*%
%TO.N,Net-(J1-Pin_6)*%
X13000000Y-7000000D03*
%TD*%
D10*
%TO.P,TP1,1,1*%
%TO.N,Net-(J1-Pin_1)*%
X2000000Y-13000000D03*
%TD*%
%TO.P,TP3,1,1*%
%TO.N,Net-(J1-Pin_4)*%
X10050000Y-13000000D03*
%TD*%
%TO.P,TP4,1,1*%
%TO.N,Net-(J1-Pin_6)*%
X14000000Y-13000000D03*
%TD*%
D13*
%TO.N,Net-(J1-Pin_6)*%
X13000000Y-7000000D02*
X13000000Y-9000000D01*
X13000000Y-9000000D02*
X14000000Y-10000000D01*
X14000000Y-10000000D02*
X14000000Y-13000000D01*
%TO.N,Net-(J1-Pin_4)*%
X9000000Y-7000000D02*
X9000000Y-9000000D01*
X9000000Y-9000000D02*
X10050000Y-10050000D01*
X10050000Y-10050000D02*
X10050000Y-13000000D01*
%TO.N,Net-(J1-Pin_3)*%
X7000000Y-7000000D02*
X7000000Y-9069239D01*
X7000000Y-9069239D02*
X6000000Y-10069239D01*
X6000000Y-10069239D02*
X6000000Y-13000000D01*
%TO.N,Net-(J1-Pin_1)*%
X3000000Y-7000000D02*
X3000000Y-9000000D01*
X2000000Y-10000000D02*
X2000000Y-13000000D01*
X3000000Y-9000000D02*
X2000000Y-10000000D01*
%TD*%
%TA.AperFunction,NonConductor*%
G36*
X15006922Y-501280D02*
G01*
X15097266Y-511459D01*
X15124331Y-517636D01*
X15203540Y-545352D01*
X15228553Y-557398D01*
X15299606Y-602043D01*
X15321313Y-619355D01*
X15380644Y-678686D01*
X15397957Y-700395D01*
X15442600Y-771444D01*
X15454648Y-796462D01*
X15482362Y-875666D01*
X15488540Y-902735D01*
X15498720Y-993075D01*
X15499500Y-1006960D01*
X15499500Y-10893106D01*
X15479815Y-10960145D01*
X15427011Y-11005900D01*
X15357853Y-11015844D01*
X15294297Y-10986819D01*
X15276234Y-10967418D01*
X15270789Y-10960145D01*
X15257546Y-10942454D01*
X15257544Y-10942453D01*
X15257544Y-10942452D01*
X15142335Y-10856206D01*
X15142328Y-10856202D01*
X15081167Y-10833391D01*
X15025233Y-10791520D01*
X15000816Y-10726056D01*
X15000500Y-10717209D01*
X15000500Y-10104675D01*
X15000501Y-10104654D01*
X15000501Y-9901457D01*
X15000500Y-9901455D01*
X14977178Y-9784209D01*
X14962052Y-9708165D01*
X14893704Y-9543159D01*
X14886633Y-9526088D01*
X14886628Y-9526079D01*
X14777140Y-9362219D01*
X14777137Y-9362215D01*
X14036819Y-8621897D01*
X14003334Y-8560574D01*
X14000500Y-8534216D01*
X14000500Y-7790235D01*
X14014016Y-7733939D01*
X14019873Y-7722445D01*
X14073402Y-7557701D01*
X14100500Y-7386611D01*
X14100500Y-6613389D01*
X14073402Y-6442299D01*
X14019873Y-6277555D01*
X13941232Y-6123212D01*
X13839414Y-5983072D01*
X13716928Y-5860586D01*
X13576788Y-5758768D01*
X13422445Y-5680127D01*
X13257701Y-5626598D01*
X13257699Y-5626597D01*
X13257698Y-5626597D01*
X13126271Y-5605781D01*
X13086611Y-5599500D01*
X12913389Y-5599500D01*
X12873728Y-5605781D01*
X12742302Y-5626597D01*
X12577552Y-5680128D01*
X12423211Y-5758768D01*
X12343256Y-5816859D01*
X12283072Y-5860586D01*
X12283070Y-5860588D01*
X12283069Y-5860588D01*
X12160588Y-5983069D01*
X12160581Y-5983078D01*
X12100317Y-6066023D01*
X12044987Y-6108689D01*
X11975374Y-6114667D01*
X11913579Y-6082061D01*
X11899683Y-6066023D01*
X11839418Y-5983078D01*
X11839414Y-5983072D01*
X11716928Y-5860586D01*
X11576788Y-5758768D01*
X11422445Y-5680127D01*
X11257701Y-5626598D01*
X11257699Y-5626597D01*
X11257698Y-5626597D01*
X11126271Y-5605781D01*
X11086611Y-5599500D01*
X10913389Y-5599500D01*
X10873728Y-5605781D01*
X10742302Y-5626597D01*
X10577552Y-5680128D01*
X10423211Y-5758768D01*
X10343256Y-5816859D01*
X10283072Y-5860586D01*
X10283070Y-5860588D01*
X10283069Y-5860588D01*
X10160588Y-5983069D01*
X10160581Y-5983078D01*
X10100317Y-6066023D01*
X10044987Y-6108689D01*
X9975374Y-6114667D01*
X9913579Y-6082061D01*
X9899683Y-6066023D01*
X9839418Y-5983078D01*
X9839414Y-5983072D01*
X9716928Y-5860586D01*
X9576788Y-5758768D01*
X9422445Y-5680127D01*
X9257701Y-5626598D01*
X9257699Y-5626597D01*
X9257698Y-5626597D01*
X9126271Y-5605781D01*
X9086611Y-5599500D01*
X8913389Y-5599500D01*
X8873728Y-5605781D01*
X8742302Y-5626597D01*
X8577552Y-5680128D01*
X8423211Y-5758768D01*
X8343256Y-5816859D01*
X8283072Y-5860586D01*
X8283070Y-5860588D01*
X8283069Y-5860588D01*
X8160588Y-5983069D01*
X8160581Y-5983078D01*
X8100317Y-6066023D01*
X8044987Y-6108689D01*
X7975374Y-6114667D01*
X7913579Y-6082061D01*
X7899683Y-6066023D01*
X7839418Y-5983078D01*
X7839414Y-5983072D01*
X7716928Y-5860586D01*
X7576788Y-5758768D01*
X7422445Y-5680127D01*
X7257701Y-5626598D01*
X7257699Y-5626597D01*
X7257698Y-5626597D01*
X7126271Y-5605781D01*
X7086611Y-5599500D01*
X6913389Y-5599500D01*
X6873728Y-5605781D01*
X6742302Y-5626597D01*
X6577552Y-5680128D01*
X6423211Y-5758768D01*
X6343256Y-5816859D01*
X6283072Y-5860586D01*
X6283070Y-5860588D01*
X6283069Y-5860588D01*
X6160588Y-5983069D01*
X6160581Y-5983078D01*
X6100317Y-6066023D01*
X6044987Y-6108689D01*
X5975374Y-6114667D01*
X5913579Y-6082061D01*
X5899683Y-6066023D01*
X5839418Y-5983078D01*
X5839414Y-5983072D01*
X5716928Y-5860586D01*
X5576788Y-5758768D01*
X5422445Y-5680127D01*
X5257701Y-5626598D01*
X5257699Y-5626597D01*
X5257698Y-5626597D01*
X5126271Y-5605781D01*
X5086611Y-5599500D01*
X4913389Y-5599500D01*
X4873728Y-5605781D01*
X4742302Y-5626597D01*
X4577552Y-5680128D01*
X4423211Y-5758768D01*
X4283073Y-5860585D01*
X4175530Y-5968128D01*
X4114207Y-6001612D01*
X4044515Y-5996628D01*
X3988582Y-5954756D01*
X3982310Y-5945543D01*
X3942712Y-5881344D01*
X3818656Y-5757288D01*
X3693559Y-5680128D01*
X3669336Y-5665187D01*
X3669331Y-5665185D01*
X3667862Y-5664698D01*
X3502797Y-5610001D01*
X3502795Y-5610000D01*
X3400010Y-5599500D01*
X2599998Y-5599500D01*
X2599980Y-5599501D01*
X2497203Y-5610000D01*
X2497200Y-5610001D01*
X2330668Y-5665185D01*
X2330663Y-5665187D01*
X2181342Y-5757289D01*
X2057289Y-5881342D01*
X1965187Y-6030663D01*
X1965186Y-6030666D01*
X1910001Y-6197203D01*
X1910001Y-6197204D01*
X1910000Y-6197204D01*
X1899500Y-6299983D01*
X1899500Y-7700001D01*
X1899501Y-7700018D01*
X1910000Y-7802796D01*
X1910001Y-7802799D01*
X1965185Y-7969331D01*
X1965186Y-7969334D01*
X1981039Y-7995036D01*
X1999500Y-8060132D01*
X1999500Y-8534217D01*
X1979815Y-8601256D01*
X1963182Y-8621897D01*
X1362220Y-9222859D01*
X1362218Y-9222861D01*
X1315344Y-9269735D01*
X1222859Y-9362219D01*
X1113371Y-9526080D01*
X1113364Y-9526093D01*
X1067103Y-9637780D01*
X1067103Y-9637781D01*
X1037949Y-9708163D01*
X1037947Y-9708171D01*
X1037947Y-9708172D01*
X1024176Y-9777404D01*
X1015950Y-9818755D01*
X999500Y-9901457D01*
X999500Y-10717209D01*
X979815Y-10784248D01*
X927011Y-10830003D01*
X918833Y-10833391D01*
X857671Y-10856202D01*
X857664Y-10856206D01*
X742455Y-10942452D01*
X723766Y-10967418D01*
X667832Y-11009288D01*
X598140Y-11014272D01*
X536818Y-10980786D01*
X503333Y-10919462D01*
X500500Y-10893106D01*
X500500Y-1006961D01*
X501280Y-993077D01*
X501280Y-993075D01*
X511459Y-902731D01*
X517635Y-875670D01*
X545353Y-796456D01*
X557396Y-771450D01*
X602046Y-700389D01*
X619351Y-678690D01*
X678690Y-619351D01*
X700389Y-602046D01*
X771450Y-557396D01*
X796456Y-545353D01*
X875670Y-517635D01*
X902733Y-511459D01*
X965419Y-504396D01*
X993079Y-501280D01*
X1006962Y-500500D01*
X1065892Y-500500D01*
X14934108Y-500500D01*
X14993038Y-500500D01*
X15006922Y-501280D01*
G37*
%TD.AperFunction*%
%TA.AperFunction,NonConductor*%
G36*
X10205703Y-8062491D02*
G01*
X10212181Y-8068523D01*
X10283072Y-8139414D01*
X10423212Y-8241232D01*
X10577555Y-8319873D01*
X10742299Y-8373402D01*
X10913389Y-8400500D01*
X10913390Y-8400500D01*
X11086610Y-8400500D01*
X11086611Y-8400500D01*
X11257701Y-8373402D01*
X11422445Y-8319873D01*
X11576788Y-8241232D01*
X11716928Y-8139414D01*
X11787819Y-8068523D01*
X11849142Y-8035038D01*
X11918834Y-8040022D01*
X11974767Y-8081894D01*
X11999184Y-8147358D01*
X11999500Y-8156204D01*
X11999500Y-9098542D01*
X12013273Y-9167779D01*
X12013273Y-9167781D01*
X12037947Y-9291830D01*
X12037951Y-9291842D01*
X12049866Y-9320607D01*
X12060038Y-9345165D01*
X12067102Y-9362218D01*
X12113366Y-9473911D01*
X12113371Y-9473920D01*
X12222859Y-9637780D01*
X12222860Y-9637781D01*
X12222861Y-9637782D01*
X12362218Y-9777139D01*
X12362219Y-9777139D01*
X12369286Y-9784206D01*
X12369285Y-9784206D01*
X12369289Y-9784209D01*
X12963181Y-10378101D01*
X12996666Y-10439424D01*
X12999500Y-10465782D01*
X12999500Y-10717209D01*
X12979815Y-10784248D01*
X12927011Y-10830003D01*
X12918833Y-10833391D01*
X12857671Y-10856202D01*
X12857664Y-10856206D01*
X12742455Y-10942452D01*
X12742452Y-10942455D01*
X12656206Y-11057664D01*
X12656202Y-11057671D01*
X12605908Y-11192517D01*
X12599501Y-11252116D01*
X12599501Y-11252123D01*
X12599500Y-11252135D01*
X12599500Y-14747870D01*
X12599501Y-14747876D01*
X12605908Y-14807483D01*
X12656202Y-14942328D01*
X12656206Y-14942335D01*
X12742452Y-15057544D01*
X12742455Y-15057547D01*
X12857664Y-15143793D01*
X12857671Y-15143797D01*
X12992517Y-15194091D01*
X12992516Y-15194091D01*
X12999444Y-15194835D01*
X13052127Y-15200500D01*
X14947872Y-15200499D01*
X15007483Y-15194091D01*
X15142331Y-15143796D01*
X15257546Y-15057546D01*
X15257545Y-15057546D01*
X15264645Y-15052232D01*
X15265984Y-15054020D01*
X15316472Y-15026444D01*
X15386165Y-15031420D01*
X15442104Y-15073284D01*
X15466529Y-15138745D01*
X15459888Y-15188559D01*
X15454648Y-15203535D01*
X15442600Y-15228555D01*
X15397957Y-15299604D01*
X15380644Y-15321313D01*
X15321313Y-15380644D01*
X15299604Y-15397957D01*
X15228555Y-15442600D01*
X15203537Y-15454648D01*
X15124333Y-15482362D01*
X15097264Y-15488540D01*
X15017075Y-15497576D01*
X15006921Y-15498720D01*
X14993038Y-15499500D01*
X1006962Y-15499500D01*
X993078Y-15498720D01*
X980553Y-15497308D01*
X902735Y-15488540D01*
X875666Y-15482362D01*
X796462Y-15454648D01*
X771444Y-15442600D01*
X700395Y-15397957D01*
X678686Y-15380644D01*
X619355Y-15321313D01*
X602042Y-15299604D01*
X557399Y-15228555D01*
X545351Y-15203535D01*
X540111Y-15188559D01*
X536550Y-15118780D01*
X571280Y-15058154D01*
X633274Y-15025928D01*
X702850Y-15032334D01*
X734620Y-15053213D01*
X735355Y-15052232D01*
X857664Y-15143793D01*
X857671Y-15143797D01*
X992517Y-15194091D01*
X992516Y-15194091D01*
X999444Y-15194835D01*
X1052127Y-15200500D01*
X2947872Y-15200499D01*
X3007483Y-15194091D01*
X3142331Y-15143796D01*
X3257546Y-15057546D01*
X3343796Y-14942331D01*
X3394091Y-14807483D01*
X3400500Y-14747873D01*
X3400499Y-11252128D01*
X3394091Y-11192517D01*
X3343796Y-11057669D01*
X3343795Y-11057668D01*
X3343793Y-11057664D01*
X3257547Y-10942455D01*
X3257544Y-10942452D01*
X3142335Y-10856206D01*
X3142328Y-10856202D01*
X3081167Y-10833391D01*
X3025233Y-10791520D01*
X3000816Y-10726056D01*
X3000500Y-10717209D01*
X3000500Y-10465782D01*
X3020185Y-10398743D01*
X3036819Y-10378101D01*
X3777137Y-9637784D01*
X3777139Y-9637782D01*
X3777140Y-9637781D01*
X3886632Y-9473914D01*
X3962052Y-9291835D01*
X4000501Y-9098540D01*
X4000501Y-8901459D01*
X4000501Y-8896349D01*
X4000500Y-8896323D01*
X4000500Y-8156204D01*
X4020185Y-8089165D01*
X4072989Y-8043410D01*
X4142147Y-8033466D01*
X4205703Y-8062491D01*
X4212181Y-8068523D01*
X4283072Y-8139414D01*
X4423212Y-8241232D01*
X4577555Y-8319873D01*
X4742299Y-8373402D01*
X4913389Y-8400500D01*
X4913390Y-8400500D01*
X5086610Y-8400500D01*
X5086611Y-8400500D01*
X5257701Y-8373402D01*
X5422445Y-8319873D01*
X5576788Y-8241232D01*
X5716928Y-8139414D01*
X5787819Y-8068523D01*
X5849142Y-8035038D01*
X5918834Y-8040022D01*
X5974767Y-8081894D01*
X5999184Y-8147358D01*
X5999500Y-8156204D01*
X5999500Y-8603456D01*
X5979815Y-8670495D01*
X5963181Y-8691137D01*
X5362220Y-9292098D01*
X5362218Y-9292100D01*
X5309154Y-9345164D01*
X5222859Y-9431458D01*
X5113371Y-9595319D01*
X5113364Y-9595332D01*
X5067103Y-9707019D01*
X5067103Y-9707020D01*
X5038059Y-9777139D01*
X5037949Y-9777404D01*
X5028336Y-9825727D01*
X4999500Y-9970695D01*
X4999500Y-10717209D01*
X4979815Y-10784248D01*
X4927011Y-10830003D01*
X4918833Y-10833391D01*
X4857671Y-10856202D01*
X4857664Y-10856206D01*
X4742455Y-10942452D01*
X4742452Y-10942455D01*
X4656206Y-11057664D01*
X4656202Y-11057671D01*
X4605908Y-11192517D01*
X4599501Y-11252116D01*
X4599501Y-11252123D01*
X4599500Y-11252135D01*
X4599500Y-14747870D01*
X4599501Y-14747876D01*
X4605908Y-14807483D01*
X4656202Y-14942328D01*
X4656206Y-14942335D01*
X4742452Y-15057544D01*
X4742455Y-15057547D01*
X4857664Y-15143793D01*
X4857671Y-15143797D01*
X4992517Y-15194091D01*
X4992516Y-15194091D01*
X4999444Y-15194835D01*
X5052127Y-15200500D01*
X6947872Y-15200499D01*
X7007483Y-15194091D01*
X7142331Y-15143796D01*
X7257546Y-15057546D01*
X7343796Y-14942331D01*
X7394091Y-14807483D01*
X7400500Y-14747873D01*
X7400499Y-11252128D01*
X7394091Y-11192517D01*
X7343796Y-11057669D01*
X7343795Y-11057668D01*
X7343793Y-11057664D01*
X7257547Y-10942455D01*
X7257544Y-10942452D01*
X7142335Y-10856206D01*
X7142328Y-10856202D01*
X7081167Y-10833391D01*
X7025233Y-10791520D01*
X7000816Y-10726056D01*
X7000500Y-10717209D01*
X7000500Y-10535021D01*
X7020185Y-10467982D01*
X7036819Y-10447340D01*
X7777137Y-9707023D01*
X7777137Y-9707022D01*
X7777140Y-9707020D01*
X7886632Y-9543153D01*
X7902326Y-9505262D01*
X7946166Y-9450861D01*
X8012459Y-9428795D01*
X8080159Y-9446073D01*
X8119989Y-9483825D01*
X8222859Y-9637780D01*
X8222863Y-9637785D01*
X8366537Y-9781459D01*
X8366559Y-9781479D01*
X9013181Y-10428101D01*
X9046666Y-10489424D01*
X9049500Y-10515782D01*
X9049500Y-10717209D01*
X9029815Y-10784248D01*
X8977011Y-10830003D01*
X8968833Y-10833391D01*
X8907671Y-10856202D01*
X8907664Y-10856206D01*
X8792455Y-10942452D01*
X8792452Y-10942455D01*
X8706206Y-11057664D01*
X8706202Y-11057671D01*
X8655908Y-11192517D01*
X8649501Y-11252116D01*
X8649501Y-11252123D01*
X8649500Y-11252135D01*
X8649500Y-14747870D01*
X8649501Y-14747876D01*
X8655908Y-14807483D01*
X8706202Y-14942328D01*
X8706206Y-14942335D01*
X8792452Y-15057544D01*
X8792455Y-15057547D01*
X8907664Y-15143793D01*
X8907671Y-15143797D01*
X9042517Y-15194091D01*
X9042516Y-15194091D01*
X9049444Y-15194835D01*
X9102127Y-15200500D01*
X10997872Y-15200499D01*
X11057483Y-15194091D01*
X11192331Y-15143796D01*
X11307546Y-15057546D01*
X11393796Y-14942331D01*
X11444091Y-14807483D01*
X11450500Y-14747873D01*
X11450499Y-11252128D01*
X11444091Y-11192517D01*
X11393796Y-11057669D01*
X11393795Y-11057668D01*
X11393793Y-11057664D01*
X11307547Y-10942455D01*
X11307544Y-10942452D01*
X11192335Y-10856206D01*
X11192328Y-10856202D01*
X11131167Y-10833391D01*
X11075233Y-10791520D01*
X11050816Y-10726056D01*
X11050500Y-10717209D01*
X11050500Y-9951456D01*
X11012052Y-9758170D01*
X11012051Y-9758169D01*
X11012051Y-9758165D01*
X10991340Y-9708165D01*
X10991339Y-9708163D01*
X10962187Y-9637782D01*
X10936635Y-9576093D01*
X10936634Y-9576092D01*
X10936632Y-9576086D01*
X10903228Y-9526093D01*
X10827139Y-9412217D01*
X10684686Y-9269764D01*
X10684655Y-9269735D01*
X10036819Y-8621899D01*
X10003334Y-8560576D01*
X10000500Y-8534218D01*
X10000500Y-8156204D01*
X10020185Y-8089165D01*
X10072989Y-8043410D01*
X10142147Y-8033466D01*
X10205703Y-8062491D01*
G37*
%TD.AperFunction*%
M02*
